<svg version="1.1" xmlns="http://www.w3.org/2000/svg" viewBox="0 0 40.2421875 40.828125" width="40.2421875" height="40.828125">
  <!-- svg-source:excalidraw -->
  
  <defs>
    <style class="style-fonts">
      @font-face {
        font-family: "Virgil";
        src: url("https://excalidraw.com/Virgil.woff2");
      }
      @font-face {
        font-family: "Cascadia";
        src: url("https://excalidraw.com/Cascadia.woff2");
      }
      @font-face {
        font-family: "Assistant";
        src: url("https://excalidraw.com/Assistant-Regular.woff2");
      }
    </style>
    
  </defs>
  <g stroke-linecap="round" transform="translate(10 10) rotate(0 10.12109375 10.4140625)"><path d="M9.18 -0.2 C11.25 -0.4, 14.13 1.05, 15.89 2.48 C17.65 3.92, 19.15 6.31, 19.76 8.41 C20.37 10.51, 20.39 13.2, 19.54 15.08 C18.69 16.96, 16.68 18.78, 14.65 19.7 C12.62 20.63, 9.53 21.28, 7.35 20.62 C5.18 19.95, 2.84 17.58, 1.59 15.71 C0.33 13.84, -0.37 11.5, -0.18 9.39 C0.01 7.28, 1.12 4.56, 2.74 3.05 C4.35 1.53, 8.3 0.77, 9.51 0.33 C10.71 -0.11, 9.98 0.27, 9.96 0.42 M9.11 0.25 C11.18 -0.39, 13.37 -0.35, 15.25 0.76 C17.14 1.87, 19.79 4.6, 20.4 6.89 C21.02 9.17, 19.76 12.4, 18.93 14.46 C18.1 16.53, 17.12 18.23, 15.41 19.26 C13.71 20.28, 10.82 21.07, 8.71 20.6 C6.59 20.13, 4.25 18.18, 2.7 16.44 C1.15 14.69, -0.47 12.29, -0.61 10.14 C-0.76 7.98, 0.36 5.13, 1.84 3.53 C3.31 1.94, 7.14 1.15, 8.24 0.56 C9.35 -0.03, 8.39 -0.08, 8.47 0" stroke="none" stroke-width="0" fill="#ffffff"></path><path d="M10.77 -0.22 C12.75 -0.29, 15.26 0.93, 16.89 2.53 C18.52 4.13, 20.24 7.06, 20.55 9.38 C20.86 11.69, 19.97 14.54, 18.74 16.42 C17.52 18.3, 15.24 20, 13.19 20.65 C11.13 21.3, 8.37 21.21, 6.42 20.31 C4.48 19.4, 2.6 17.17, 1.52 15.21 C0.43 13.25, -0.53 10.72, -0.08 8.57 C0.38 6.41, 2.45 3.66, 4.25 2.29 C6.05 0.91, 9.67 0.66, 10.73 0.3 C11.79 -0.06, 10.61 0.08, 10.62 0.13 M9.46 0.06 C11.51 -0.14, 14.37 0.48, 16.24 1.82 C18.11 3.17, 20.23 5.81, 20.68 8.15 C21.13 10.48, 20 13.77, 18.96 15.81 C17.93 17.86, 16.61 19.73, 14.48 20.44 C12.35 21.15, 8.23 20.8, 6.17 20.08 C4.11 19.36, 3.05 17.91, 2.13 16.13 C1.22 14.36, 0.39 11.77, 0.7 9.43 C1.01 7.09, 2.57 3.74, 3.99 2.12 C5.4 0.5, 8.19 0.07, 9.19 -0.28 C10.19 -0.63, 9.99 -0.13, 9.98 0.02" stroke="#6741d9" stroke-width="4" fill="none"></path></g></svg>