<svg version="1.1" xmlns="http://www.w3.org/2000/svg" viewBox="0 0 57.58984375 73.71484375" width="57.58984375" height="73.71484375">
  <!-- svg-source:excalidraw -->
  
  <defs>
    <style class="style-fonts">
      @font-face {
        font-family: "Virgil";
        src: url("https://excalidraw.com/Virgil.woff2");
      }
      @font-face {
        font-family: "Cascadia";
        src: url("https://excalidraw.com/Cascadia.woff2");
      }
      @font-face {
        font-family: "Assistant";
        src: url("https://excalidraw.com/Assistant-Regular.woff2");
      }
    </style>
    
  </defs>
  <g stroke-linecap="round" transform="translate(10 10) rotate(0 18.794921875 26.857421875)"><path d="M23.75 6.75 C26.97 10.2, 31.4 19, 32.84 20.25 C38.02 25.34, 37.27 24.5, 32.84 33.75 C30.89 39.08, 26.86 45.2, 23.75 46.96 C19.85 55.77, 20.99 56.99, 14.25 46.96 C8.28 44.09, 8.23 36.14, 4.75 33.75 C-3.21 29.56, -2.32 28.55, 4.75 20.25 C6.24 18.42, 12.4 14.76, 14.25 6.75 C20.81 0.53, 21.46 -1.6, 23.75 6.75" stroke="none" stroke-width="0" fill="#ffd43b"></path><path d="M23.75 6.75 C25.47 11.41, 28.89 14.36, 32.84 20.25 M23.75 6.75 C25.78 10.07, 27.24 12.1, 32.84 20.25 M32.84 20.25 C39.01 28.2, 38.74 25.11, 32.84 33.75 M32.84 20.25 C36.51 28.71, 37.5 25.77, 32.84 33.75 M32.84 33.75 C30.17 36.19, 27.15 42.39, 23.75 46.96 M32.84 33.75 C31.7 36.85, 29.02 39.19, 23.75 46.96 M23.75 46.96 C18.65 53.62, 20.45 54.45, 14.25 46.96 M23.75 46.96 C20.1 55.24, 16.7 51.47, 14.25 46.96 M14.25 46.96 C11.61 40.54, 7.64 37.37, 4.75 33.75 M14.25 46.96 C11.06 43.08, 9.17 38.36, 4.75 33.75 M4.75 33.75 C-1.06 27.64, 1.41 27.18, 4.75 20.25 M4.75 33.75 C0.63 25.43, 1.38 24.91, 4.75 20.25 M4.75 20.25 C9.01 14.72, 11.02 11.58, 14.25 6.75 M4.75 20.25 C8.5 14.51, 11.39 10.69, 14.25 6.75 M14.25 6.75 C19.74 -1.21, 19.87 0.55, 23.75 6.75 M14.25 6.75 C18.3 -0.14, 16.8 -0.15, 23.75 6.75" stroke="#1e1e1e" stroke-width="1" fill="none"></path></g></svg>